<?xml version="1.0" encoding="UTF-8" standalone="no"?><svg xmlns="http://www.w3.org/2000/svg" xmlns:xlink="http://www.w3.org/1999/xlink" contentScriptType="application/ecmascript" contentStyleType="text/css" height="343px" preserveAspectRatio="none" style="width:489px;height:343px;" version="1.1" viewBox="0 0 489 343" width="489px" zoomAndPan="magnify"><defs><filter height="300%" id="f1sad4ayms3om2" width="300%" x="-1" y="-1"><feGaussianBlur result="blurOut" stdDeviation="2.0"/><feColorMatrix in="blurOut" result="blurOut2" type="matrix" values="0 0 0 0 0 0 0 0 0 0 0 0 0 0 0 0 0 0 .4 0"/><feOffset dx="4.0" dy="4.0" in="blurOut2" result="blurOut3"/><feBlend in="SourceGraphic" in2="blurOut3" mode="normal"/></filter></defs><g><!--MD5=[23689a62b5e80204d759960f89ec0344]
entity Login--><rect fill="#FEFECE" filter="url(#f1sad4ayms3om2)" height="36.2969" style="stroke: #A80036; stroke-width: 1.5;" width="57" x="271" y="200"/><rect fill="#FEFECE" height="5" style="stroke: #A80036; stroke-width: 1.5;" width="10" x="266" y="205"/><rect fill="#FEFECE" height="5" style="stroke: #A80036; stroke-width: 1.5;" width="10" x="266" y="226.2969"/><text fill="#000000" font-family="sans-serif" font-size="14" lengthAdjust="spacingAndGlyphs" textLength="37" x="281" y="222.9951">Login</text><!--MD5=[fb851ee893d563978d328b8d6446dc54]
entity DatabaseOne--><rect fill="#FEFECE" filter="url(#f1sad4ayms3om2)" height="36.2969" style="stroke: #A80036; stroke-width: 1.5;" width="115" x="363" y="200"/><rect fill="#FEFECE" height="5" style="stroke: #A80036; stroke-width: 1.5;" width="10" x="358" y="205"/><rect fill="#FEFECE" height="5" style="stroke: #A80036; stroke-width: 1.5;" width="10" x="358" y="226.2969"/><text fill="#000000" font-family="sans-serif" font-size="14" lengthAdjust="spacingAndGlyphs" textLength="95" x="373" y="222.9951">DatabaseOne</text><!--MD5=[63a628aa003482aced31f1d686d84fb7]
entity CharacterOne--><rect fill="#FEFECE" filter="url(#f1sad4ayms3om2)" height="36.2969" style="stroke: #A80036; stroke-width: 1.5;" width="116" x="307.5" y="104"/><rect fill="#FEFECE" height="5" style="stroke: #A80036; stroke-width: 1.5;" width="10" x="302.5" y="109"/><rect fill="#FEFECE" height="5" style="stroke: #A80036; stroke-width: 1.5;" width="10" x="302.5" y="130.2969"/><text fill="#000000" font-family="sans-serif" font-size="14" lengthAdjust="spacingAndGlyphs" textLength="96" x="317.5" y="126.9951">CharacterOne</text><!--MD5=[893f6c515c722f1eeb6bb33722cdb404]
entity CharacterTwo--><rect fill="#FEFECE" filter="url(#f1sad4ayms3om2)" height="36.2969" style="stroke: #A80036; stroke-width: 1.5;" width="116" x="156.5" y="104"/><rect fill="#FEFECE" height="5" style="stroke: #A80036; stroke-width: 1.5;" width="10" x="151.5" y="109"/><rect fill="#FEFECE" height="5" style="stroke: #A80036; stroke-width: 1.5;" width="10" x="151.5" y="130.2969"/><text fill="#000000" font-family="sans-serif" font-size="14" lengthAdjust="spacingAndGlyphs" textLength="96" x="166.5" y="126.9951">CharacterTwo</text><!--MD5=[eee697615909e937cfc2f4bdc11b34a1]
entity DatabaseTwo--><rect fill="#FEFECE" filter="url(#f1sad4ayms3om2)" height="36.2969" style="stroke: #A80036; stroke-width: 1.5;" width="115" x="6" y="104"/><rect fill="#FEFECE" height="5" style="stroke: #A80036; stroke-width: 1.5;" width="10" x="1" y="109"/><rect fill="#FEFECE" height="5" style="stroke: #A80036; stroke-width: 1.5;" width="10" x="1" y="130.2969"/><text fill="#000000" font-family="sans-serif" font-size="14" lengthAdjust="spacingAndGlyphs" textLength="95" x="16" y="126.9951">DatabaseTwo</text><!--MD5=[49deb834660e66e14462f55ef46f2667]
entity MapOne--><rect fill="#FEFECE" filter="url(#f1sad4ayms3om2)" height="36.2969" style="stroke: #A80036; stroke-width: 1.5;" width="78" x="381.5" y="8"/><rect fill="#FEFECE" height="5" style="stroke: #A80036; stroke-width: 1.5;" width="10" x="376.5" y="13"/><rect fill="#FEFECE" height="5" style="stroke: #A80036; stroke-width: 1.5;" width="10" x="376.5" y="34.2969"/><text fill="#000000" font-family="sans-serif" font-size="14" lengthAdjust="spacingAndGlyphs" textLength="58" x="391.5" y="30.9951">MapOne</text><!--MD5=[0cc6e1062d6f3b9e9eb4aa62b01f62ca]
entity MapTwo--><rect fill="#FEFECE" filter="url(#f1sad4ayms3om2)" height="36.2969" style="stroke: #A80036; stroke-width: 1.5;" width="78" x="167.5" y="8"/><rect fill="#FEFECE" height="5" style="stroke: #A80036; stroke-width: 1.5;" width="10" x="162.5" y="13"/><rect fill="#FEFECE" height="5" style="stroke: #A80036; stroke-width: 1.5;" width="10" x="162.5" y="34.2969"/><text fill="#000000" font-family="sans-serif" font-size="14" lengthAdjust="spacingAndGlyphs" textLength="58" x="177.5" y="30.9951">MapTwo</text><!--MD5=[41c972d288bd70c8ed701b48bac6ec9d]
entity MapThree--><rect fill="#FEFECE" filter="url(#f1sad4ayms3om2)" height="36.2969" style="stroke: #A80036; stroke-width: 1.5;" width="90" x="26.5" y="8"/><rect fill="#FEFECE" height="5" style="stroke: #A80036; stroke-width: 1.5;" width="10" x="21.5" y="13"/><rect fill="#FEFECE" height="5" style="stroke: #A80036; stroke-width: 1.5;" width="10" x="21.5" y="34.2969"/><text fill="#000000" font-family="sans-serif" font-size="14" lengthAdjust="spacingAndGlyphs" textLength="70" x="36.5" y="30.9951">MapThree</text><!--MD5=[0ba5ee7700168656dc1b457c6fe9fdac]
entity Client--><rect fill="#FEFECE" filter="url(#f1sad4ayms3om2)" height="36.2969" style="stroke: #A80036; stroke-width: 1.5;" width="59" x="270" y="296"/><rect fill="#FEFECE" height="5" style="stroke: #A80036; stroke-width: 1.5;" width="10" x="265" y="301"/><rect fill="#FEFECE" height="5" style="stroke: #A80036; stroke-width: 1.5;" width="10" x="265" y="322.2969"/><text fill="#000000" font-family="sans-serif" font-size="14" lengthAdjust="spacingAndGlyphs" textLength="39" x="280" y="318.9951">Client</text><!--MD5=[608a5217572e3b7cc72dcf9b9bf0d865]
link Login to DatabaseOne--><path d="M328.332,218 C333.102,218 337.873,218 342.643,218 " fill="none" id="Login-&gt;DatabaseOne" style="stroke: #A80036; stroke-width: 1.0;"/><polygon fill="none" points="342.895,211,362.895,218,342.895,225,342.895,211" style="stroke: #A80036; stroke-width: 1.0;"/><!--MD5=[5a177c6b42d8c52fc99d9490feeb3c9e]
link CharacterOne to DatabaseOne--><path d="M375.588,140.241 C382.488,152.034 391.873,168.073 400.279,182.441 " fill="none" id="CharacterOne-&gt;DatabaseOne" style="stroke: #A80036; stroke-width: 1.0;"/><polygon fill="none" points="406.418,179.071,410.476,199.868,394.334,186.141,406.418,179.071" style="stroke: #A80036; stroke-width: 1.0;"/><!--MD5=[de79c3685f8a198535a1fdef1f2874f3]
link CharacterOne to Login--><path d="M353.395,140.241 C342.416,155.877 326.197,178.977 314.421,195.749 " fill="none" id="CharacterOne-&gt;Login" style="stroke: #A80036; stroke-width: 1.0;"/><polygon fill="#A80036" points="311.529,199.868,319.9745,194.801,314.4023,195.776,313.4273,190.2038,311.529,199.868" style="stroke: #A80036; stroke-width: 1.0;"/><!--MD5=[4fb1f2b284cceed4cf35355be52109e5]
reverse link DatabaseTwo to CharacterTwo--><path d="M141.213,122 C146.286,122 151.36,122 156.434,122 " fill="none" id="DatabaseTwo&lt;-CharacterTwo" style="stroke: #A80036; stroke-width: 1.0;"/><polygon fill="none" points="141.01,129,121.01,122,141.01,115,141.01,129" style="stroke: #A80036; stroke-width: 1.0;"/><!--MD5=[ed1a2628aadb97e4263664fd36fd7222]
link CharacterTwo to Login--><path d="M230.09,140.241 C244.229,155.877 265.117,178.977 280.284,195.749 " fill="none" id="CharacterTwo-&gt;Login" style="stroke: #A80036; stroke-width: 1.0;"/><polygon fill="#A80036" points="284.009,199.868,280.9404,190.5094,280.6558,196.1591,275.0061,195.8745,284.009,199.868" style="stroke: #A80036; stroke-width: 1.0;"/><!--MD5=[9461e342abb2ddb9555116f4f4fee0ae]
link MapOne to DatabaseOne--><path d="M426.596,44.16 C431.735,59.588 438.686,82.987 441.5,104 C443.624,119.858 443.624,124.142 441.5,140 C439.697,153.461 436.197,167.902 432.562,180.599 " fill="none" id="MapOne-&gt;DatabaseOne" style="stroke: #A80036; stroke-width: 1.0;"/><polygon fill="none" points="439.205,182.811,426.596,199.84,425.834,178.665,439.205,182.811" style="stroke: #A80036; stroke-width: 1.0;"/><!--MD5=[58312bff8059b189ce148ae680eb2c60]
link MapOne to CharacterOne--><path d="M410.412,44.241 C401.341,59.744 387.976,82.586 378.184,99.321 " fill="none" id="MapOne-&gt;CharacterOne" style="stroke: #A80036; stroke-width: 1.0;"/><polygon fill="#A80036" points="375.524,103.868,383.5215,98.12,378.049,99.5524,376.6166,94.0799,375.524,103.868" style="stroke: #A80036; stroke-width: 1.0;"/><!--MD5=[f93150d4bb62112c5515f152e2d4289c]
link MapTwo to DatabaseTwo--><path d="M180.604,44.023 C159.979,57.58 130.666,76.849 106.528,92.716 " fill="none" id="MapTwo-&gt;DatabaseTwo" style="stroke: #A80036; stroke-width: 1.0;"/><polygon fill="none" points="110.244,98.65,89.6868,103.786,102.5543,86.951,110.244,98.65" style="stroke: #A80036; stroke-width: 1.0;"/><!--MD5=[6ab44e67b47d5bf8d9b7588e7b513cd6]
link MapTwo to CharacterTwo--><path d="M207.967,44.241 C209.264,59.479 211.164,81.807 212.581,98.458 " fill="none" id="MapTwo-&gt;CharacterTwo" style="stroke: #A80036; stroke-width: 1.0;"/><polygon fill="#A80036" points="213.042,103.868,216.264,94.5611,212.6178,98.886,208.2928,95.2398,213.042,103.868" style="stroke: #A80036; stroke-width: 1.0;"/><!--MD5=[64d44875ccf961306225b083fc90b93b]
link MapThree to DatabaseTwo--><path d="M70.0327,44.241 C69.0967,55.239 67.8464,69.93 66.6903,83.514 " fill="none" id="MapThree-&gt;DatabaseTwo" style="stroke: #A80036; stroke-width: 1.0;"/><polygon fill="none" points="73.6289,84.534,64.958,103.868,59.6793,83.347,73.6289,84.534" style="stroke: #A80036; stroke-width: 1.0;"/><!--MD5=[b7ea2182eda5d9d0246331280d38dc52]
link MapThree to CharacterTwo--><path d="M97.3962,44.023 C121.743,60.027 158.198,83.99 183.955,100.921 " fill="none" id="MapThree-&gt;CharacterTwo" style="stroke: #A80036; stroke-width: 1.0;"/><polygon fill="#A80036" points="188.313,103.786,182.9881,95.5008,184.1344,101.0403,178.5949,102.1866,188.313,103.786" style="stroke: #A80036; stroke-width: 1.0;"/><!--MD5=[2e7362bf593ed10fb57d185f04321667]
reverse link Login to Client--><path d="M299.5,241.6621 C299.5,258.3399 299.5,280.6642 299.5,295.8683 " fill="none" id="Login&lt;-Client" style="stroke: #A80036; stroke-width: 1.0;"/><polygon fill="#A80036" points="299.5,236.241,295.5,245.241,299.5,241.241,303.5,245.241,299.5,236.241" style="stroke: #A80036; stroke-width: 1.0;"/><!--MD5=[672f9146bc383024f4c33380778b4ff0]
@startuml
[Login] -right-|> [DatabaseOne]

[CharacterOne] -down-|> [DatabaseOne]
[CharacterOne] -down-> [Login]

[CharacterTwo] -left-|> [DatabaseTwo]
[CharacterTwo] -down-> [Login]

[MapOne] - -|> [DatabaseOne]
[MapOne] - -> [CharacterOne]

[MapTwo] - -|> [DatabaseTwo]
[MapTwo] - -> [CharacterTwo]

[MapThree] - -|> [DatabaseTwo]
[MapThree] - -> [CharacterTwo]

[Client] -up-> [Login]
@enduml

PlantUML version 1.2019.11(Sun Sep 22 10:02:15 UTC 2019)
(GPL source distribution)
Java Runtime: Java(TM) SE Runtime Environment
JVM: Java HotSpot(TM) 64-Bit Server VM
Java Version: 1.7.0_25-b15
Operating System: Linux
Default Encoding: UTF-8
Language: en
Country: US
--></g></svg>